<?xml version="1.0" encoding="UTF-8" standalone="no"?>
<svg width="11px" height="17px" viewBox="0 0 11 17" version="1.1" xmlns="http://www.w3.org/2000/svg" xmlns:xlink="http://www.w3.org/1999/xlink">
    <!-- Generator: Sketch 3.7.2 (28276) - http://www.bohemiancoding.com/sketch -->
    <title>Shape</title>
    <desc>Created with Sketch.</desc>
    <defs></defs>
    <g id="Page-1" stroke="none" stroke-width="1" fill="none" fill-rule="evenodd">
        <g id="Shape">
            <path d="M9.26618912,15.0759539 L7.39351792,15.455165 L6.75751638,16.9072661 C7.80868561,16.7592813 8.7450212,16.2413344 9.45168958,15.4921612 C9.61068997,15.3256783 9.760857,15.1406973 9.89335731,14.9557162 L9.26618912,15.0759539 L9.26618912,15.0759539 L9.26618912,15.0759539 Z" fill="#004987"></path>
            <path d="M6.7310163,15.5939008 L6.18334833,15.7048894 L3.70117563,16.2043382 L3.37434151,16.2690815 L3.10050751,16.3245758 L3.37434151,16.9535114 L3.37434151,16.9535114 L6.11268149,16.9535114 C6.31584864,16.9535114 6.5190158,16.9350132 6.72218296,16.9072661 L6.73984968,16.9072661 L6.76634973,16.9072661 L7.40235127,15.4644141 L6.7310163,15.5939008 L6.7310163,15.5939008 L6.7310163,15.5939008 Z" fill="#004987"></path>
            <path d="M10.0876911,3.78286204 C10.0170243,3.34815663 9.89335731,2.93194931 9.70785686,2.55273821 C9.5665232,2.24751951 9.38985609,1.96079891 9.17785558,1.69257642 L6.7310163,1.69257642 L6.7310163,1.69257642 L6.7310163,1.69257642 L3.36550817,1.69257642 L4.00150971,3.12617938 L5.1145124,3.12617938 L5.1145124,3.12617938 C5.43251318,3.12617938 5.73284722,3.21866992 5.98901452,3.37590378 C6.32468199,3.57938291 6.58968264,3.90309973 6.7310163,4.29155987 C6.8105165,4.495039 6.84584992,4.71701625 6.84584992,4.94824253 C6.84584992,5.1424726 6.81934987,5.32745365 6.76634973,5.50318563 C6.75751638,5.54018184 6.73984968,5.56792899 6.7310163,5.60492519 L6.7310163,6.04887966 L8.31218681,5.72516285 L8.48885392,5.68816664 L9.40752281,5.50318563 L10.0700244,5.36444985 C10.0788578,5.32745365 10.0788578,5.2997065 10.0876911,5.26271029 C10.1230245,5.02223495 10.1495246,4.77251055 10.1495246,4.51353712 C10.1495246,4.27306178 10.1318579,4.02333738 10.0876911,3.78286204" fill="#004987"></path>
            <polygon fill="#0075C9" points="3.09167417 16.3245758 1.68717076 13.1336531 1.68717076 13.1336531 1.68717076 13.1336531 0 9.32304388 0 9.32304388 0 13.1429021 0 16.9535114 0 16.9535114 0 16.9535114 3.35667482 16.9535114 3.09167417 16.3245758"></polygon>
            <path d="M7.33168445,0.31446775 C7.13735064,0.240475338 6.93418349,0.175731978 6.72218296,0.138735772 C6.48368238,0.0924905146 6.2451818,0.0647433602 5.99784787,0.055494309 L5.87418091,0.055494309 L5.87418091,0.055494309 L4.08984325,0.055494309 L3.36550817,0.055494309 L2.64117307,0.055494309 L3.36550817,1.70182547 L3.36550817,1.70182547 L3.36550817,1.70182547 L6.7310163,1.70182547 L6.7310163,1.70182547 L6.7310163,1.70182547 L6.7310163,1.70182547 L9.18668893,1.70182547 C8.70085442,1.07288997 8.06485288,0.591939295 7.33168445,0.31446775" fill="#0075C9"></path>
            <polygon fill="#004987" points="3.36550817 8.09292003 2.7736734 7.97268238 0.777335219 7.56572412 0 7.40849022 0 9.32304388 0 9.32304388 0 9.32304388 1.68717076 13.1429021 3.36550817 9.32304388 3.36550817 9.32304388 3.36550817 9.32304388 3.86017602 8.1946596"></polygon>
            <path d="M6.7310163,9.32304388 L6.7310163,9.32304388 L6.7310163,9.32304388 L6.7310163,8.77734984 L6.46601568,8.72185555 L3.86900937,8.1946596 L3.37434151,9.32304388 L3.37434151,9.32304388 L3.5156752,9.6467607 L5.36184633,9.6467607 L5.36184633,9.6467607 C5.7593473,9.6467607 6.13034819,9.76699835 6.43951561,9.97972654 C6.54551587,10.053719 6.64268276,10.1277114 6.7310163,10.2202019 C7.11085057,10.599413 7.34935115,11.135858 7.34935115,11.7277973 C7.34935115,12.2734913 7.14618399,12.763691 6.82818322,13.1336531 C6.80168315,13.1706493 6.76634973,13.1983965 6.73984968,13.2261436 C6.38651549,13.5868566 5.90068098,13.7995848 5.36184633,13.7995848 L5.35301298,13.7995848 L6.18334833,15.6863913 L6.7310163,15.5754027 L7.39351792,15.4366669 L8.41818708,13.124404 L8.41818708,13.124404 L6.7310163,9.32304388 L6.7310163,9.32304388 L6.7310163,9.32304388 Z" fill="#005CB9"></path>
            <polygon fill="#00A1DF" points="5.34417963 13.8180829 4.75234486 13.8180829 3.36550817 13.8180829 3.36550817 13.1429021 3.36550817 9.6467607 3.50684183 9.6467607 3.36550817 9.32304388 3.36550817 9.32304388 1.68717076 13.1429021 1.68717076 13.1429021 3.09167417 16.3245758 3.36550817 16.2690815 3.69234229 16.2043382 6.17451496 15.7048894"></polygon>
            <path d="M10.458692,10.1554585 L10.2908583,9.76699835 C10.2378582,9.66525879 10.184858,9.56351922 10.1230245,9.46177965 C10.1141912,9.44328156 10.1053578,9.42478345 10.0876911,9.40628536 C10.0788578,9.3970363 10.0700244,9.38778724 10.0700244,9.36928915 L10.034691,9.44328156 L8.40935373,13.1336531 L8.40935373,13.1336531 L8.40935373,13.1336531 L7.38468457,15.445916 L9.25735577,15.0667048 L9.88452397,14.9372181 C9.95519081,14.8354786 10.0258576,14.733739 10.0876911,14.6227504 C10.3615251,14.1695468 10.5646923,13.660849 10.6795259,13.124404 C10.7590261,12.763691 10.8031929,12.393729 10.8031929,12.0052688 C10.8120262,11.3578352 10.6883592,10.7288997 10.458692,10.1554585" fill="#005CB9"></path>
            <polygon fill="#00A1DF" points="2.64117307 0.0462452575 0.724335088 0.0462452575 0 0.0462452575 0 0.0462452575 0 1.69257642 0 1.69257642 0 1.69257642 0 5.50318563 0 9.32304388 0 9.32304388 0 9.32304388 0 7.40849022 0.777335219 7.56572412 0.92750225 7.22350921 1.68717076 5.50318563 1.68717076 5.50318563 1.68717076 5.50318563 3.36550817 1.69257642 3.36550817 1.69257642 3.36550817 1.69257642"></polygon>
            <path d="M8.68318773,7.89868996 C8.87752153,7.72295798 9.05418862,7.52872791 9.213189,7.31599972 C9.61068997,6.79805283 9.90219066,6.17836638 10.0523577,5.50318563 C10.061191,5.45694036 10.0700244,5.41069512 10.0788578,5.36444985 L9.41635616,5.50318563 L8.49768727,5.68816664 L8.32102019,5.72516285 L6.73984968,6.04887966 L6.73984968,8.77734984 L6.73984968,9.32304388 L6.73984968,9.32304388 L6.73984968,9.32304388 L8.41818708,13.1429021 L10.0435244,9.4525306 L10.0788578,9.37853818 C10.0700244,9.36004009 10.061191,9.341542 10.0435244,9.32304388 C9.68135681,8.75885175 9.22202235,8.26865202 8.68318773,7.89868996" fill="#0075C9"></path>
            <path d="M6.44834896,6.10437396 C6.2275151,6.39109457 5.91834768,6.60382276 5.57384684,6.70556232 C5.42367983,6.75180756 5.27351279,6.77030568 5.10567906,6.77030568 L4.47851086,6.77030568 L3.36550817,6.77030568 L3.36550817,6.72406041 L3.36550817,5.50318563 L3.36550817,3.12617938 L3.99267636,3.12617938 L3.35667482,1.69257642 L3.35667482,1.69257642 L1.6783374,5.50318563 L1.6783374,5.50318563 L0.918668893,7.22350921 L0.768501862,7.56572412 L2.76484005,7.97268238 L3.35667482,8.09292003 L3.85134267,8.1946596 L6.44834896,8.72185555 L6.71334961,8.77734984 L6.71334961,6.04887966 L6.71334961,5.60492519 C6.66034949,5.78990623 6.57201592,5.95638916 6.44834896,6.10437396" fill="#40B4E5"></path>
        </g>
    </g>
</svg>