<?xml version="1.0" encoding="utf-8"?>
<!-- Generator: Adobe Illustrator 21.0.2, SVG Export Plug-In . SVG Version: 6.00 Build 0)  -->
<svg version="1.1" id="Layer_1" xmlns="http://www.w3.org/2000/svg" xmlns:xlink="http://www.w3.org/1999/xlink" x="0px" y="0px"
	 viewBox="0 0 367 76" style="enable-background:new 0 0 367 76;" xml:space="preserve">
<style type="text/css">
	.st0{fill:#00A1DF;}
	.st1{fill:#6EC4E9;}
	.st2{fill:#8FC7E8;}
	.st3{fill:#0075C9;}
	.st4{fill:#005CB9;}
	.st5{fill:#40B4E5;}
	.st6{fill:#0071CE;}
	.st7{fill:#004987;}
</style>
<title>Group 3</title>
<desc>Created with Sketch.</desc>
<path class="st0" d="M336,7.8h-7.2h-2.7h-2.7l2.7,5.8l0,0l0,0h12.5l0,0L336,7.8z"/>
<path class="st1" d="M338.7,41L338.7,41l-1.8-4l-9.6,1.9l-1,0.2l-0.9,0.2l0.8,1.8h0l0,0l0,0l0.2,0.5h12h0.2h0.3L338.7,41z"/>
<path class="st2" d="M319.9,27.3L319.9,27.3l-0.3,0.7l0.7,0.1l5.9,1.1v-2v-8.2h0v-5.4L319.9,27.3z"/>
<path class="st3" d="M326.2,13.7L326.2,13.7l-2.7-5.8h-7.1h-2.7l0,0v5.8l0,0l0,0v13.2l0,0l2.5,0.5l3.4,0.7l0.3-0.7v0l0,0L326.2,13.7
	z"/>
<path class="st4" d="M351.2,13.7h-12.5h0l0,0l0,0h-12.5l0,0l0,0v5.4h2.5h7.5h2.5h2.5h7.5h2.5V13.7z"/>
<path class="st1" d="M351.2,34.2l-2.9,0.6l-7.4,1.5l-2.2,0.4l-1.8,0.3l1.8,4l0,0h0h0l0.3,0.5h12h0.2V34.2z"/>
<path class="st0" d="M351.2,7.8h-2.7h-7.1h-2.7H336l2.7,5.8l0,0h0h12.5V7.8z"/>
<path class="st3" d="M326.2,56.7L326.2,56.7l0-2l0-13.1h0.2l-0.2-0.5h0l-0.8-1.8l-9.2,1.8l-2.3,0.4l6.1,13.2l0,0l0,0l3.8,8.3
	l2.5,0.5l2,0.4l3.3-7.2L326.2,56.7z"/>
<path class="st3" d="M323.7,63l-3.8-8.3l0,0l-6.1-13.2l-0.2,0.1v13.2V61v7.3l0,0h12.5L323.7,63z"/>
<path class="st0" d="M339.7,66.1l-1.1-0.2l-1.2-0.2l-9.2-1.8l-2-0.4l-2.5-0.5l2.4,5.3h0l0,0h12.5l0,0h0h12.4L339.7,66.1z"/>
<path class="st1" d="M351.2,56.7l-5.3,0H344h-5.3h-5.3h-1.9l-3.3,7.2l9.2,1.8l1.2,0.2l1.1,0.2l11.4,2.2h0.1l0,0V56.7z"/>
<path class="st0" d="M330,30h-3.8h0v-0.8l-5.9-1.1l-0.7-0.1l-3.4-0.7l-2.5-0.5v0.5V41l0,0l0,0v0.5l0.2-0.1l2.3-0.4l9.2-1.8l0.9-0.2
	l1-0.2l3.9-8.6l0.1-0.2H330z"/>
<path class="st5" d="M351.2,30h-5h-2.5h-5h-5h-2.5l-0.1,0.2l-3.9,8.6l9.6-1.9l1.8-0.3l2.2-0.4l7.4-1.5l2.9-0.6V30z"/>
<path class="st1" d="M213.4,61.1l-3.1,0.6l-6.9,1.4v5.3h10h0l0,0h2.5v-5.4v-2.4L213.4,61.1z"/>
<path class="st4" d="M248.2,7.9l2.7,5.9l0,0l0,0l2.5-5.4V7.9H248.2z"/>
<path class="st0" d="M250.9,53.7l-5,1l-1.1,0.2l-0.2,0.1l-3.8,8.3l5.1,5.1l3.3,3.4l1.7,1.8l2.4,2.4v-2.3v-5.2v-5.2l0-8.4v-1.5
	L250.9,53.7z"/>
<path class="st3" d="M250.9,41.1h-10v4.6l-0.7-0.7l-1.8-1.8l-0.7-0.7l-1.6,3.5l-4,8.6l0.1,0.1l2.2,2.2l3.9,3.9l2.4,2.4l3.8-8.3
	l0.1-0.3l0,0l0,0l3-6.5L250.9,41.1L250.9,41.1L250.9,41.1z"/>
<path class="st3" d="M250.9,13.7L250.9,13.7l-0.4,0.9l-2.5,5.5l2.9-0.6l2.5-0.5l0,0l0-3.9v-1.5V8.3L250.9,13.7z"/>
<path class="st3" d="M210.3,61.7l-3.2-6.9l0,0l0,0l-3.8-8.2v8.2v8.2V63L210.3,61.7z"/>
<path class="st4" d="M250.9,13.7l-2.7-5.9h-7.1h-0.2v0.4v4.5v1v5.5v2.3l1-0.2l6.1-1.2l2.5-5.5L250.9,13.7L250.9,13.7z"/>
<path class="st3" d="M253.4,19.1l-2.5,0.5l-2.9,0.6l-6.1,1.2l-1,0.2v5.9h3.8l0,0h6.3h2.5V19.1L253.4,19.1z"/>
<path class="st4" d="M216.9,21.5l-3.6-3.6l-1.3-1.3l-5.3,11.6l14.1-2.8L216.9,21.5z"/>
<path class="st3" d="M212.1,16.6l-2.9-2.9L203.5,8l-0.1-0.1v0.4v5.4v5.5v8.2v1.5v6.7l3.4-7.4l0.4-0.8h0h0L212.1,16.6z"/>
<path class="st3" d="M250.9,27.4h-6.3l0,0l0,0h-3.8v8.2v5.4h10l0,0l0,0l2.5-5.3v-8.3H250.9z"/>
<path class="st0" d="M219.6,27.4L219.6,27.4l-0.7-1.6l-12.2,2.4l-3.4,7.4v4v1.5v5.5l3.8,8.2l0,0l3.2,6.9l3.1-0.6l2.5-0.5v-5.8v-8.2
	v-4.5v-1h-2.5L219.6,27.4L219.6,27.4z"/>
<path class="st6" d="M236.3,41.1l-7.1-7.2l-3.3-3.3l-3.1-3.1l-1.9-2l-0.3,0.1l-1.6,0.3l0.7,1.6h0h0l6.3,13.6l0,0h0h0l1.5,3.2
	l8.8,1.7l1.6-3.5L236.3,41.1z"/>
<path class="st1" d="M227.3,44.3l-1.5-3.2l0,0l-6.3-13.6l-6.3,13.7l2.5,0v-3.1l2.9,3l1.9,1.9l2.9,3l8.6,8.6l4-8.6L227.3,44.3z"/>
<path class="st5" d="M250.9,41.1L250.9,41.1L250.9,41.1l-3.3,7.2l-3,6.5l0,0l-0.1,0.3l0.2-0.1l1.1-0.2l5-1l2.4-0.5v-3.9v-3v-5.3
	l0-5.3L250.9,41.1z"/>
<path class="st1" d="M200.1,66.9l-1.5-3.3l-9.2,1.8l-1.2,0.2l-1,0.2l0,0l1,2.2h0v0l0,0l0,0l12.5,0L200.1,66.9z"/>
<path class="st6" d="M150.6,63.2l-2.4-0.5l2.4,5.3l0,0l0,0l2-4.4L150.6,63.2z"/>
<path class="st0" d="M148.2,62.7l-3.8-8.3h0l0,0l-3.2,6.9l-3.1,6.7v0h0l12.5,0L148.2,62.7z"/>
<path class="st3" d="M194.4,54.5L194.4,54.5l-6.2-13.5l0-0.1l-6.2,13.5v0l5.2,11.4l1-0.2l1.2-0.2l9.2-1.8L194.4,54.5z"/>
<path class="st5" d="M169.7,0.9L169.3,0l-0.5,1.1l-5.6,12.3l0,0h12.3L169.7,0.9z"/>
<path class="st0" d="M175.5,13.4h-12.3l0,0l0,0v13.6v4.4v4.8l2.2-0.4l1.7-3.7l2.4-5.2l0,0l0,0l0,0l6.2-13.5L175.5,13.4z"/>
<path class="st4" d="M163.1,36.3l-1.8,0.4l-9.7,1.9l0,0l-1,2.1l0,0v0l-6.3,13.6l0,0l0,0l3.8,8.3l2.4,0.5l2,0.4l4.2-9.2v0l6.3-13.6v0
	l0,0l2.2-4.8L163.1,36.3z"/>
<path class="st1" d="M163.1,13.4l-6.3,13.6l0,0l-1.3,2.9l-3.9,8.6l0,0l9.7-1.9l1.8-0.4v-4.8v-4.4V13.4L163.1,13.4L163.1,13.4z"/>
<path class="st3" d="M184.2,32.3l-2.3-5l-0.1-0.1l-6.1-13.3l-0.1-0.2l-6.2,13.5l1.6,3.5l1.2,2.7l3.4,0.7l0,0l0,0l2.9,0.6l7.3,1.4
	L184.2,32.3z"/>
<path class="st6" d="M188.1,40.8l-2.2-4.8l-7.3-1.4l-2.9-0.6l0,0l-3.4-0.7l0,0l0.6,1.2l2.9,6.3l0,0l0,0l6.2,13.7h0v0L188.1,40.8
	L188.1,40.8z"/>
<path class="st1" d="M308.1,60.1l-1.6-3.6l-1.3,3l-2.4,5.2c2-1.1,3.9-2.5,5.6-4L308.1,60.1L308.1,60.1z"/>
<path class="st6" d="M301,58.7l-4.9-1l-2.5-0.5l-5.1-1l-6.2-1.2l6.1,13.3h0.1h0.1c4,0,7.9-0.8,11.4-2.3c0.4-0.2,0.8-0.3,1.1-0.5
	c0.6-0.3,1.2-0.6,1.7-0.9l2.4-5.2L301,58.7L301,58.7z"/>
<path class="st3" d="M270.5,13.7l5.4,0l1.8-4C277.2,9.9,273.5,11.5,270.5,13.7z"/>
<path class="st3" d="M305.7,54.8l-3-6.5c-0.5,0.7-1.1,1.4-1.7,2.1c-1.7,1.8-3.8,3.3-6.2,4.2c-0.1,0-0.1,0.1-0.2,0.1
	c-0.1,0.1-0.3,0.1-0.4,0.2c-1.8,0.6-3.7,1-5.8,1h-0.1c-2,0-4-0.4-5.9-1c-0.1,0-0.3-0.1-0.3-0.1l0.1,0.1l0,0l0,0l0.1,0.3l6.2,1.2
	l5.1,1l2.5,0.5l4.9,1l4.2,0.8l1.3-3L305.7,54.8L305.7,54.8z"/>
<path class="st0" d="M274.7,49.2l-2.6,0.5l-4.3,0.8l-4.3,0.8l0,0h0l-1.8,0.4c0.5,1.1,1.9,3.2,1.9,3.2c1.2,1.7,2.5,3.4,4,4.8
	c2,2,4.3,3.7,6.9,5.1c0.5,0.3,1.1,0.6,1.7,0.8V54.8v-1l0-3.2C275.5,50.1,275.1,49.6,274.7,49.2"/>
<path class="st1" d="M282.4,55.1l-0.1-0.3l0,0l-0.1-0.1c-2.3-0.9-4.4-2.3-6.2-4l0,3.2v1v10.9c0.4,0.2,0.7,0.3,1.1,0.5
	c3.5,1.4,7.3,2.2,11.4,2.2h0.1L282.4,55.1L282.4,55.1z"/>
<path class="st2" d="M306.2,13.7c-1.3-0.9-2.6-1.8-4-2.5c-0.4-0.2-0.8-0.4-1.2-0.6c-0.4-0.2-0.9-0.4-1.3-0.6
	c-0.2-0.1-0.3-0.1-0.5-0.2l0.1,0.3l1.6,3.6l0,0l0,0l-4.1,8.9c0.8,0.4,1.5,0.9,2.2,1.5c0.7,0.5,1.3,1.1,1.9,1.7
	c0.5,0.5,0.9,1,1.3,1.6c0.1,0.2,0.3,0.3,0.4,0.5l0.2-0.5l1.1-2.4l1.1-2.4l3.3-7.2l0,0C307.7,14.9,307,14.3,306.2,13.7"/>
<path class="st3" d="M273.2,47.1c-1.1-1.8-1.8-3.8-2.2-6l-7.6,0l0,0l4.3,9.4l4.3-0.8l2.6-0.5C274.1,48.5,273.7,47.8,273.2,47.1"/>
<path class="st6" d="M301,13.7l-1.6-3.6l-0.1-0.3c-2.6-1-5.3-1.7-8.1-1.9c-0.9-0.1-1.7-0.1-2.6-0.1h-0.1c-0.9,0-1.7,0-2.5,0.1l2,4.4
	l-6.9,1.3l-4.6,0.9l2.5,5.5l1.1,2.4c1.1-0.6,2.3-1.1,3.6-1.4c0.6-0.2,1.2-0.3,1.7-0.4c1-0.2,2-0.3,3.1-0.3h0.1
	c1.1,0,2.2,0.1,3.2,0.3c1.9,0.4,3.7,1,5.3,1.9L301,13.7L301,13.7L301,13.7z"/>
<path class="st2" d="M263.4,41.1L263.4,41.1L263.4,41.1l-4.4-9.6c-0.5,2.1-0.7,4.3-0.7,6.6c0,1,0.1,2,0.1,3c0.3,2.5,0.8,5,1.6,7.3
	c0.3,0.9,0.7,1.7,1.1,2.6c0.1,0.3,0.3,0.5,0.4,0.8l1.8-0.4h0l4.3-0.8L263.4,41.1L263.4,41.1z"/>
<path class="st6" d="M287.9,12.3l-2-4.4c-2.8,0.2-5.5,0.9-8.1,1.8l-1.8,4l0,0l-0.5,1l-2,4.3l-3.8,8.3l0,0l-6.3,13.7l7.6,0
	c-0.2-1-0.3-2-0.3-3c0-2.1,0.4-4.1,1-6c0.6-1.7,1.5-3.3,2.5-4.7c0.5-0.6,1-1.3,1.6-1.8c1.2-1.2,2.5-2.2,4-3l-1.1-2.4l-2.5-5.5
	l4.6-0.9L287.9,12.3L287.9,12.3z"/>
<path class="st1" d="M276,13.7l-5.4,0c-1.1,0.8-2.1,1.7-3.1,2.6c-0.4,0.4-0.9,0.9-1.3,1.3c-0.2,0.2-0.4,0.5-0.6,0.7
	c-0.8,0.9-1.5,1.9-2.1,2.8c-1.3,1.9-2.3,4-3.2,6.2c-0.5,1.3-0.9,2.7-1.2,4.1l4.4,9.6l6.2-13.7l0,0l0,0l3.8-8.2l2-4.3L276,13.7
	L276,13.7L276,13.7z"/>
<path class="st7" d="M27.7,63.1l-2.4,5.2c3.9-0.5,7.4-2.4,10-5.1c0.6-0.6,1.2-1.3,1.6-1.9L27.7,63.1z"/>
<path class="st7" d="M25.2,63.6l-2,0.4l-11.5,2.2l1,2.3h10.3c0.8,0,1.5-0.1,2.3-0.2h0.1h0.1l2.3-5.2L25.2,63.6L25.2,63.6z"/>
<path class="st7" d="M37.7,21.2c-0.3-1.6-0.7-3.1-1.4-4.4c-0.5-1.1-1.2-2.1-2-3.1h-9.1l0,0l0,0H12.7l2.4,5.1h4.2l0,0
	c1.2,0,2.3,0.3,3.3,0.9c1.3,0.7,2.2,1.9,2.8,3.3c0.3,0.7,0.4,1.5,0.4,2.4c0,0.7-0.1,1.4-0.3,2c0,0.1-0.1,0.2-0.1,0.4v1.6l5.9-1.2
	l0.7-0.1l3.4-0.7l2.5-0.5c0-0.1,0-0.2,0.1-0.4c0.1-0.9,0.2-1.8,0.2-2.7C38,23,37.9,22.1,37.7,21.2"/>
<path class="st3" d="M11.7,66.2L6.4,54.8l0,0l0,0L0.1,41.1l0,0v13.7v13.7l0,0l0,0h12.5L11.7,66.2L11.7,66.2z"/>
<path class="st3" d="M27.5,8.8c-0.7-0.3-1.5-0.5-2.3-0.6c-0.9-0.2-1.8-0.3-2.7-0.3H22l0,0h-6.7h-2.7l-2.7,0l2.7,5.9l12.5,0l0,0l0,0
	l0,0h9.2C32.6,11.5,30.2,9.8,27.5,8.8"/>
<path class="st7" d="M12.7,36.7l-2.2-0.4L3,34.8l-2.9-0.6v6.9l0,0l0,0l6.3,13.7l6.3-13.7l0,0l0,0l1.8-4L12.7,36.7z"/>
<path class="st4" d="M25.2,41.1L25.2,41.1L25.2,41.1v-2l-1-0.2L14.5,37l-1.8,4l0.5,1.2h6.9l0,0c1.5,0,2.9,0.4,4,1.2
	c0.4,0.3,0.8,0.5,1.1,0.9c1.4,1.4,2.3,3.3,2.3,5.4c0,2-0.8,3.7-1.9,5c-0.1,0.1-0.2,0.2-0.3,0.3c-1.3,1.3-3.2,2.1-5.2,2.1l3.1,6.8
	l4.5-0.9l3.8-8.4l0,0L25.2,41.1L25.2,41.1z"/>
<path class="st0" d="M20.1,57.2h-2.2h-5.2v-2.4V42.2h0.5l-0.5-1.2l0,0L6.4,54.8l0,0l5.2,11.4l1-0.2l1.2-0.2l9.3-1.8L20.1,57.2z"/>
<path class="st4" d="M39.1,44.1l-0.6-1.4c-0.3-0.7-0.8-1.4-0.8-1.4l-6.2,13.5l0,0l0,0l-3.8,8.3l9.3-1.8c0.3-0.4,0.5-0.8,0.7-1.2
	c1-1.6,1.8-3.5,2.2-5.4c0.3-1.3,0.5-2.6,0.5-4C40.4,48.4,40,46.1,39.1,44.1"/>
<path class="st0" d="M10,7.8l-7.1,0H0.1l0,0v5.9l0,0l0,0v13.7v13.7l0,0l0,0v-6.9L3,34.8l0.6-1.2l2.8-6.2l0,0l0,0l6.3-13.6L10,7.8z"
	/>
<path class="st3" d="M32.5,36c0.7-0.6,1.4-1.3,2-2.1c1.5-1.9,2.6-4.1,3.1-6.5c0-0.2,0.1-0.3,0.1-0.5l-2.5,0.5L31.8,28l-0.7,0.1
	l-5.9,1.2v11.7l6.3,13.7l6.1-13.2l0.1-0.3c0-0.1-0.1-0.1-0.1-0.2C36.2,39.1,34.5,37.3,32.5,36"/>
<path class="st5" d="M24.2,29.5c-0.8,1-2,1.8-3.3,2.2c-0.6,0.2-1.1,0.2-1.7,0.2h-2.3h-4.1v-0.2v-4.4v-8.5H15l-2.3-5.1L6.4,27.4l0,0
	l-2.8,6.2L3,34.8l7.4,1.5l2.2,0.4l1.8,0.4l9.7,1.9l1.1,0.2V27.7C25,28.4,24.6,29,24.2,29.5"/>
<path class="st0" d="M132.7,56.8l1.7,3.6l1.2,2.6v-2.3v-3.8H132.7z"/>
<path class="st3" d="M103.7,48.3l-0.8,0.2v5.9v0.5V63l3.7-8l0.1-0.2l0,0l3.6-7.8L103.7,48.3z"/>
<path class="st1" d="M113,7.9h-2.7l2.1,4.5l0.6,1.4l0,0l0.8-1.6l1.8-4V7.9H113z"/>
<path class="st1" d="M112.4,12.3l-2.1-4.5h-7.2H103v0.3v5.5v0.5v5v0.9v7.3h3.8l2.8-6l3.5-7.6l0,0v0L112.4,12.3z"/>
<path class="st3" d="M134.4,60.4l-1.7-3.6h-1.8h-5.4h-5.3l0.4,0.9l4.9,10.7l0,0l0,0h10V63L134.4,60.4z"/>
<path class="st6" d="M113.7,12.1l-0.8,1.6l0,0l0,0l-3.5,7.6l-2.8,6h6.3h2.6v-4.8v-3.3v-5.6v-2V8.1L113.7,12.1z"/>
<path class="st6" d="M113,41.1L113,41.1L113,41.1L113,41.1h-10v5.5v1.8l0.8-0.2l6.6-1.3l2.7-0.5l2.3-0.4l0.3-0.1v-4.9H113z"/>
<path class="st0" d="M120.2,56.8h-1.8h-2.6h-0.2v0v-2v-8.1V46l-0.3,0.1l-2.3,0.4l-2.7,0.5l-3.6,7.8l0,0l0,0l-0.1,0.2l-3.7,7.9v5.5
	h10l0,0h0h12.5L120.2,56.8z"/>
<path class="st3" d="M113,27.4h-6.3l0,0l0,0H103v8.2v5.5h10l0,0h2.6v-5.6v-8.1H113z"/>
<path class="st3" d="M87.9,68.4h12.4l-6.2-13.5L87.9,68.4z"/>
<path class="st0" d="M50.3,58.7l-4.1,0.8l-4.7,0.9l0,0l-3.7,8h0h12.5l0,0l4.9-10.7L50.3,58.7z"/>
<path class="st6" d="M69,0.1L69,0.1L69,0.1l-5.6,12.2l-0.6,1.3v0l0,0l-4.2,9.1l19.1-3.7L69,0.1z"/>
<path class="st6" d="M94.1,54.8L93,52.3l-0.8-1.8l0,0l-4.2-9.2l0,0l-0.1-0.1l-0.1-0.1H75.4l0,0l0.4,0.9l3.5,7.6l1.4,3.1l0.9,2l0,0
	l6.2,13.6h0.1h0l0,0L94.1,54.8L94.1,54.8z"/>
<path class="st4" d="M50.3,41.1L50.3,41.1l1.5,3.2l4.8,10.5l4-8.8l2.2-4.9H50.3z"/>
<path class="st5" d="M51.8,44.3l-1.5-3.2l0,0l0,0l0,0l0,0l-1.2,2.7l-5,11l0,0v0l0,0l-2.6,5.6l4.7-0.9l4.1-0.8l4.9-0.9l1.3-3v0
	L51.8,44.3z"/>
<path class="st3" d="M72.4,20.1l-6.1,1.2L62.8,22l-4.2,0.8l0,0l-2.1,4.5l0,0l-6.3,13.7v0h12.5v0l0,0L69,27.4l0,0v0l0,0v0l6.3,13.7
	l0,0V27.4v-7.8L72.4,20.1z"/>
<path class="st1" d="M81.6,27.5l-0.1-0.1l-3.8-8.3l0,0l-2.4,0.4v7.8v13.7l0,0h12.4l0,0L81.6,27.5z"/>
<path id="r" class="st7" d="M360.9,7.9c3.1,0,5.5,2.5,5.5,5.5c0,3.2-2.4,5.6-5.6,5.6c-3.2,0-5.6-2.5-5.6-5.6
	C355.3,10.3,357.8,7.9,360.9,7.9L360.9,7.9L360.9,7.9z M360.9,8.9c-2.5,0-4.4,2.1-4.4,4.6c0,2.6,1.9,4.6,4.5,4.6
	c2.5,0,4.3-2,4.3-4.6S363.4,8.9,360.9,8.9L360.9,8.9L360.9,8.9z M359.9,16.5h-1.1v-5.8c0.6-0.1,1.2-0.2,2-0.2c1,0,1.4,0.2,1.8,0.5
	c0.4,0.2,0.6,0.7,0.6,1.3c0,0.7-0.5,1.2-1.1,1.4v0.1c0.5,0.2,0.8,0.7,0.9,1.4c0.2,0.9,0.3,1.2,0.5,1.4h-1.1
	c-0.2-0.2-0.3-0.7-0.5-1.5c-0.1-0.7-0.5-0.9-1.3-0.9h-0.7L359.9,16.5L359.9,16.5z M359.9,13.2h0.7c0.8,0,1.5-0.2,1.5-0.9
	c0-0.6-0.4-1-1.4-1c-0.4,0-0.7,0-0.8,0.1V13.2L359.9,13.2z"/>
</svg>
